<?xml version="1.0" encoding="utf-8"?><!-- Uploaded to: SVG Repo, www.svgrepo.com, Generator: SVG Repo Mixer Tools -->
<svg width="800px" height="800px" viewBox="0 0 24 24" xmlns="http://www.w3.org/2000/svg" fill="none" stroke="#000000" stroke-width="1" stroke-linecap="round" stroke-linejoin="miter"><circle cx="12" cy="12" r="4"></circle><path d="M16,8v5a3,3,0,0,0,3,3h0a3,3,0,0,0,3-3V12a9.87,9.87,0,0,0-.79-3.89,10,10,0,0,0-5.32-5.32,10,10,0,0,0-7.78,0A10,10,0,0,0,2.79,8.11a10,10,0,0,0,0,7.78,10,10,0,0,0,5.32,5.32,10,10,0,0,0,7.78,0"></path></svg>