<?xml version="1.0" encoding="utf-8"?><!-- Uploaded to: SVG Repo, www.svgrepo.com, Generator: SVG Repo Mixer Tools -->
<svg width="800px" height="800px" viewBox="0 0 24 24" xmlns="http://www.w3.org/2000/svg" fill="none" stroke="#000000" stroke-width="1" stroke-linecap="round" stroke-linejoin="miter"><circle cx="12" cy="12" r="9"></circle><path stroke-linecap="round" d="M15.9,3.75a9.81,9.81,0,0,1,.85-.5,16.88,16.88,0,0,1,1.58-.75,8.34,8.34,0,0,1,1.36-.4,3.1,3.1,0,0,1,1.09,0,1.43,1.43,0,0,1,.77.37,1.43,1.43,0,0,1,.37.77,3.1,3.1,0,0,1,0,1.09,8.34,8.34,0,0,1-.4,1.36,16.88,16.88,0,0,1-.75,1.58c-.3.56-.66,1.15-1.07,1.76s-.86,1.24-1.36,1.88-1,1.3-1.63,2-1.2,1.32-1.86,2-1.32,1.28-2,1.86-1.32,1.13-2,1.63-1.27,1-1.88,1.36-1.2.77-1.76,1.07a16.88,16.88,0,0,1-1.58.75,8.34,8.34,0,0,1-1.36.4,3.1,3.1,0,0,1-1.09,0,1.43,1.43,0,0,1-.77-.37,1.43,1.43,0,0,1-.37-.77,3.1,3.1,0,0,1,0-1.09,8.34,8.34,0,0,1,.4-1.36,16.88,16.88,0,0,1,.75-1.58c.3-.56.5-.9.5-.9"></path></svg>