<?xml version="1.0" encoding="UTF-8" standalone="no"?>
<!-- Uploaded to: SVG Repo, www.svgrepo.com, Generator: SVG Repo Mixer Tools -->

<svg
   width="800px"
   height="800px"
   viewBox="0 0 24 24"
   fill="none"
   stroke="#000000"
   stroke-width="1"
   stroke-linecap="round"
   stroke-linejoin="miter"
   version="1.1"
   id="svg1"
   sodipodi:docname="planet_dark.svg"
   inkscape:version="1.3.2 (091e20ef0f, 2023-11-25, custom)"
   xmlns:inkscape="http://www.inkscape.org/namespaces/inkscape"
   xmlns:sodipodi="http://sodipodi.sourceforge.net/DTD/sodipodi-0.dtd"
   xmlns="http://www.w3.org/2000/svg"
   xmlns:svg="http://www.w3.org/2000/svg">
  <defs
     id="defs1" />
  <sodipodi:namedview
     id="namedview1"
     pagecolor="#ffffff"
     bordercolor="#000000"
     borderopacity="0.25"
     inkscape:showpageshadow="2"
     inkscape:pageopacity="0.0"
     inkscape:pagecheckerboard="0"
     inkscape:deskcolor="#d1d1d1"
     showguides="false"
     inkscape:zoom="1.1325"
     inkscape:cx="400"
     inkscape:cy="400"
     inkscape:window-width="2016"
     inkscape:window-height="1106"
     inkscape:window-x="1920"
     inkscape:window-y="0"
     inkscape:window-maximized="1"
     inkscape:current-layer="svg1" />
  <circle
     cx="12"
     cy="12"
     r="9"
     id="circle1"
     style="stroke:#ef9600;stroke-opacity:1" />
  <path
     stroke-linecap="round"
     d="M15.9,3.75a9.81,9.81,0,0,1,.85-.5,16.88,16.88,0,0,1,1.58-.75,8.34,8.34,0,0,1,1.36-.4,3.1,3.1,0,0,1,1.09,0,1.43,1.43,0,0,1,.77.37,1.43,1.43,0,0,1,.37.77,3.1,3.1,0,0,1,0,1.09,8.34,8.34,0,0,1-.4,1.36,16.88,16.88,0,0,1-.75,1.58c-.3.56-.66,1.15-1.07,1.76s-.86,1.24-1.36,1.88-1,1.3-1.63,2-1.2,1.32-1.86,2-1.32,1.28-2,1.86-1.32,1.13-2,1.63-1.27,1-1.88,1.36-1.2.77-1.76,1.07a16.88,16.88,0,0,1-1.58.75,8.34,8.34,0,0,1-1.36.4,3.1,3.1,0,0,1-1.09,0,1.43,1.43,0,0,1-.77-.37,1.43,1.43,0,0,1-.37-.77,3.1,3.1,0,0,1,0-1.09,8.34,8.34,0,0,1,.4-1.36,16.88,16.88,0,0,1,.75-1.58c.3-.56.5-.9.5-.9"
     id="path1"
     style="stroke:#ef9600;stroke-opacity:1" />
</svg>
